<svg xmlns="http://www.w3.org/2000/svg" width="40" height="58" viewBox="0 0 40 58"><g><g><path fill="none" stroke="#000" stroke-miterlimit="50" stroke-width="1.8" d="M20.008 1.53C9.51 1.53 1 10.53 1 21.631c0 10.802 17.593 33.43 18.342 34.388.164.21.408.332.666.332a.847.847 0 0 0 .666-.332c.75-.957 18.342-23.586 18.342-34.388 0-11.101-8.51-20.101-19.008-20.101z"/></g><g><path d="M27.791 20.698a.857.857 0 0 0-.864.849v9.337h-3.458v-5.942a.857.857 0 0 0-.865-.849h-5.187a.857.857 0 0 0-.864.85v5.941h-3.458v-9.337a.857.857 0 0 0-.865-.849h-.916l8.697-6.568 8.696 6.568zm-6.067 10.186h-3.446v-5.093h3.446zm10.04-10.01l-11.231-8.488a.876.876 0 0 0-1.054 0L8.247 20.875a.839.839 0 0 0-.157 1.19.87.87 0 0 0 .684.33h2.592v9.338c0 .469.386.849.864.849h15.552c.477 0 .864-.38.864-.849v-9.337h2.592c.477 0 .863-.38.863-.85a.843.843 0 0 0-.336-.671z"/></g></g></svg>