<svg xmlns="http://www.w3.org/2000/svg" width="46" height="58" viewBox="0 0 46 58"><defs><clipPath id="q6uja"><path fill="#fff" d="M22.25 25.28a4.14 4.14 0 1 0 0-8.28 4.14 4.14 0 0 0 0 8.28z"/></clipPath><clipPath id="q6ujb"><path fill="#fff" d="M23.864 26.321l-.059-.001h-3.12c-3.2.056-5.744 2.51-5.684 5.482l.001.055v.828c0 .414.168.88.669.88h13.148c.501 0 .669-.466.669-.88v-.828c.092-2.97-2.425-5.45-5.624-5.536z"/></clipPath></defs><g><g><path fill="none" stroke="#000" stroke-linejoin="round" stroke-miterlimit="50" stroke-width="2" d="M9.354 1v0H43a2 2 0 0 1 2 2v52a2 2 0 0 1-2 2H3a2 2 0 0 1-2-2V9.404v0z"/></g><g><path fill="none" stroke="#000" stroke-linejoin="round" stroke-miterlimit="50" stroke-width="2" d="M9.354 1H10v7a2 2 0 0 1-2 2H1v-.596z"/></g><g><path fill="none" stroke="#000" stroke-miterlimit="50" stroke-width="3.1" d="M22.25 25.28a4.14 4.14 0 1 0 0-8.28 4.14 4.14 0 0 0 0 8.28z" clip-path="url(&quot;#q6uja&quot;)"/></g><g><path fill="none" stroke="#000" stroke-miterlimit="50" stroke-width="3.1" d="M23.864 26.321l-.059-.001h-3.12c-3.2.056-5.744 2.51-5.684 5.482l.001.055v.828c0 .414.168.88.669.88h13.148c.501 0 .669-.466.669-.88v-.828c.092-2.97-2.425-5.45-5.624-5.536z" clip-path="url(&quot;#q6ujb&quot;)"/></g><g><path fill="none" stroke="#000" stroke-linecap="round" stroke-miterlimit="50" stroke-width="1.5" d="M15 38h14"/></g><g><path fill="none" stroke="#000" stroke-linecap="round" stroke-miterlimit="50" stroke-width="1.5" d="M15 41h8"/></g></g></svg>