<svg xmlns="http://www.w3.org/2000/svg" width="20" height="12" viewBox="0 0 20 12"><g><g><path d="M11.989 5.998a2.21 2.21 0 0 0-2.352-2.352c-1.104.072-2 .964-2.068 2.068a2.21 2.21 0 0 0 2.352 2.352 2.224 2.224 0 0 0 2.068-2.068zM10.05 9.962A4.118 4.118 0 0 1 5.673 5.59a4.118 4.118 0 0 1 8.218.536c-.132 2.044-1.794 3.704-3.84 3.836zM9.777.03C6.041.03 2.653 2.074.153 5.394a.774.774 0 0 0 0 .924c2.5 3.324 5.888 5.368 9.624 5.368 3.736 0 7.124-2.044 9.624-5.364a.774.774 0 0 0 0-.924C16.901 2.074 13.513.03 9.777.03z"/></g></g></svg>