<svg xmlns="http://www.w3.org/2000/svg" width="47" height="55" viewBox="0 0 47 55"><g><g><path d="M30.891 6.719C30.345 2.889 27.011 0 23.137 0a7.863 7.863 0 0 0-6.33 3.217.922.922 0 1 0 1.488 1.087 6.017 6.017 0 0 1 4.841-2.46c2.963 0 5.513 2.207 5.93 5.135a.922.922 0 0 0 1.825-.26z"/></g><g><path d="M44.202 17.035l-2.765-4.608a.92.92 0 0 0-.79-.447h-2.65a.922.922 0 0 0 0 1.843h2.129l1.658 2.765H4.49l1.659-2.765h.976a.922.922 0 0 0 0-1.843H5.626a.92.92 0 0 0-.79.447l-2.765 4.608a.923.923 0 0 0 .79 1.397h40.551a.921.921 0 0 0 .79-1.397z"/></g><g><path d="M39.606 8.534a.92.92 0 0 0-.573-.411L26.469 5.184a.923.923 0 0 0-1.107.688l-.948 4.05a.92.92 0 1 0 1.795.419l.738-3.152 10.768 2.519-1.692 7.234a.92.92 0 1 0 1.795.42L39.72 9.23a.918.918 0 0 0-.114-.696z"/></g><g><path d="M23.62 10.716l-.839-7.102a.92.92 0 0 0-1.023-.808L6.343 4.628a.922.922 0 0 0-.807 1.024l1.4 11.846a.922.922 0 1 0 1.831-.217L7.475 6.351 21.06 4.744l.731 6.187a.923.923 0 0 0 1.83-.216z"/></g><g><path d="M30.914 17.162l-1.83-7.607a.924.924 0 0 0-1.111-.68l-14.847 3.57a.922.922 0 0 0-.68 1.112l.914 3.802a.92.92 0 1 0 1.792-.43l-.7-2.907 13.055-3.139 1.614 6.71a.921.921 0 1 0 1.793-.43z"/></g><g><path d="M1.991 52.533l1.75-34.1H42.54l1.748 34.1zm42.345-35.069a.922.922 0 0 0-.92-.874H2.866a.922.922 0 0 0-.921.874L.1 53.407a.922.922 0 0 0 .92.968h44.237a.924.924 0 0 0 .921-.969z"/></g><g><path d="M30.05 23.98a.929.929 0 0 1 0-1.86.93.93 0 0 1 0 1.86zm-.005-3.7a2.768 2.768 0 0 0-2.765 2.765 2.768 2.768 0 0 0 2.765 2.765 2.768 2.768 0 0 0 2.765-2.765 2.768 2.768 0 0 0-2.765-2.765z"/></g><g><path d="M16.23 23.98a.93.93 0 0 1 0-1.86.93.93 0 0 1 0 1.86zm-.005-3.7a2.768 2.768 0 0 0-2.765 2.765 2.768 2.768 0 0 0 2.765 2.765 2.768 2.768 0 0 0 2.765-2.765 2.768 2.768 0 0 0-2.765-2.765z"/></g><g><path d="M30.046 23.04h-.071a.922.922 0 0 0-.851 1.277v4.713a5.997 5.997 0 0 1-5.99 5.99 5.997 5.997 0 0 1-5.991-5.99v-5.068a.922.922 0 0 0-1.843 0v5.068c0 4.32 3.514 7.834 7.834 7.834 4.319 0 7.833-3.514 7.833-7.834v-5.068a.922.922 0 0 0-.921-.922z"/></g></g></svg>